{
	"asset":{
		"generator":"Khronos glTF Blender I/O v4.3.47",
		"version":"2.0"
	},
	"extensionsUsed":[
		"KHR_materials_specular"
	],
	"scene":0,
	"scenes":[
		{
			"name":"Scene",
			"nodes":[
				4,
				13
			]
		}
	],
	"nodes":[
		{
			"mesh":0,
			"name":"Plane.001_power_plug_textures_0"
		},
		{
			"children":[
				0
			],
			"name":"Plane.001",
			"scale":[
				100,
				99.99999237060547,
				99.99999237060547
			],
			"translation":[
				0,
				49.999996185302734,
				0
			]
		},
		{
			"children":[
				1
			],
			"name":"RootNode"
		},
		{
			"children":[
				2
			],
			"name":"cd56bb44169a4be9ab5d657fcb52f062.fbx",
			"rotation":[
				0.70710688829422,
				0,
				0,
				0.7071066498756409
			],
			"scale":[
				0.009999999776482582,
				0.010000000707805157,
				0.010000000707805157
			]
		},
		{
			"children":[
				3
			],
			"name":"Sketchfab_model",
			"rotation":[
				-0.70710688829422,
				0,
				0,
				0.7071066498756409
			]
		},
		{
			"mesh":1,
			"name":"Antenna_lo__0",
			"translation":[
				-1.1712312698364258e-05,
				-1.5429752238560468e-05,
				0
			]
		},
		{
			"children":[
				5
			],
			"name":"Antenna_lo",
			"rotation":[
				-0.6333873867988586,
				-0.27209576964378357,
				0.6784176230430603,
				0.2540353238582611
			],
			"translation":[
				1.9786890745162964,
				29.771499633789062,
				70.57011413574219
			]
		},
		{
			"mesh":2,
			"name":"AntennaMount_lo__0",
			"translation":[
				-2.2895634174346924e-05,
				0,
				0
			]
		},
		{
			"children":[
				7
			],
			"name":"AntennaMount_lo",
			"rotation":[
				-0.6333873867988586,
				-0.27209576964378357,
				0.6784176230430603,
				0.2540353238582611
			],
			"translation":[
				0.914535403251648,
				40.84327697753906,
				59.73612976074219
			]
		},
		{
			"name":"USBBase_lo__0",
			"rotation":[
				-0.8423749804496765,
				0,
				0,
				0.5388917922973633
			],
			"translation":[
				0,
				0,
				1.52587890625e-05
			]
		},
		{
			"children":[
				9
			],
			"name":"USBBase_lo",
			"translation":[
				0,
				0.4091644287109375,
				-4.9875335693359375
			]
		},
		{
			"children":[
				6,
				8,
				10
			],
			"name":"RootNode.001",
			"translation":[
				0,
				0,
				1.52587890625e-05
			]
		},
		{
			"children":[
				11
			],
			"name":"b9c677412c744e0ea5678b31479dd486.fbx",
			"rotation":[
				0.70710688829422,
				0,
				0,
				0.7071066498756409
			],
			"scale":[
				0.009999999776482582,
				0.010000000707805157,
				0.010000000707805157
			]
		},
		{
			"children":[
				12
			],
			"name":"Sketchfab_model.001",
			"rotation":[
				-0.70710688829422,
				0,
				0,
				0.7071066498756409
			],
			"translation":[
				0,
				-1.7036799192428589,
				-2.0422885417938232
			]
		}
	],
	"materials":[
		{
			"doubleSided":true,
			"extensions":{
				"KHR_materials_specular":{
					"specularFactor":0
				}
			},
			"name":"power_plug_textures",
			"normalTexture":{
				"index":0,
				"texCoord":1
			},
			"pbrMetallicRoughness":{
				"baseColorTexture":{
					"index":1
				},
				"metallicRoughnessTexture":{
					"index":2
				}
			}
		},
		{
			"doubleSided":true,
			"name":"Scene_-_Root",
			"normalTexture":{
				"index":3
			},
			"occlusionTexture":{
				"index":4
			},
			"pbrMetallicRoughness":{
				"baseColorTexture":{
					"index":5
				},
				"metallicRoughnessTexture":{
					"index":4
				}
			}
		}
	],
	"meshes":[
		{
			"name":"Plane.001_power_plug_textures_0",
			"primitives":[
				{
					"attributes":{
						"POSITION":0,
						"NORMAL":1,
						"TEXCOORD_0":2,
						"TEXCOORD_1":3,
						"TEXCOORD_2":4
					},
					"indices":5,
					"material":0
				}
			]
		},
		{
			"name":"Antenna_lo__0",
			"primitives":[
				{
					"attributes":{
						"POSITION":6,
						"NORMAL":7,
						"TEXCOORD_0":8
					},
					"indices":9,
					"material":1
				}
			]
		},
		{
			"name":"AntennaMount_lo__0",
			"primitives":[
				{
					"attributes":{
						"POSITION":10,
						"NORMAL":11,
						"TEXCOORD_0":12
					},
					"indices":13,
					"material":1
				}
			]
		}
	],
	"textures":[
		{
			"sampler":0,
			"source":0
		},
		{
			"sampler":0,
			"source":1
		},
		{
			"sampler":0,
			"source":2
		},
		{
			"sampler":0,
			"source":3
		},
		{
			"sampler":0,
			"source":4
		},
		{
			"sampler":0,
			"source":5
		}
	],
	"images":[
		{
			"mimeType":"image/png",
			"name":"power_plug_textures_normal",
			"uri":"power_plug_textures_normal.png"
		},
		{
			"mimeType":"image/png",
			"name":"power_plug_textures_baseColor",
			"uri":"power_plug_textures_baseColor.png"
		},
		{
			"mimeType":"image/png",
			"name":"power_plug_textures_metallicRoughness",
			"uri":"power_plug_textures_metallicRoughness.png"
		},
		{
			"mimeType":"image/png",
			"name":"Scene_-_Root_normal",
			"uri":"Scene_-_Root_normal.png"
		},
		{
			"mimeType":"image/png",
			"name":"Scene_-_Root_metallicRoughness",
			"uri":"Scene_-_Root_metallicRoughness.png"
		},
		{
			"mimeType":"image/png",
			"name":"Scene_-_Root_baseColor",
			"uri":"Scene_-_Root_baseColor.png"
		}
	],
	"accessors":[
		{
			"bufferView":0,
			"componentType":5126,
			"count":792,
			"max":[
				0.9062817692756653,
				0.9249455332756042,
				1.0198101997375488
			],
			"min":[
				-0.948876678943634,
				-1.8192980289459229,
				-1.7840970754623413
			],
			"type":"VEC3"
		},
		{
			"bufferView":1,
			"componentType":5126,
			"count":792,
			"type":"VEC3"
		},
		{
			"bufferView":2,
			"componentType":5126,
			"count":792,
			"type":"VEC2"
		},
		{
			"bufferView":3,
			"componentType":5126,
			"count":792,
			"type":"VEC2"
		},
		{
			"bufferView":4,
			"componentType":5126,
			"count":792,
			"type":"VEC2"
		},
		{
			"bufferView":5,
			"componentType":5123,
			"count":1722,
			"type":"SCALAR"
		},
		{
			"bufferView":6,
			"componentType":5126,
			"count":435,
			"max":[
				1.598453164100647,
				88.9217300415039,
				4.441378116607666
			],
			"min":[
				-6.156977653503418,
				-3.991889238357544,
				-4.441382884979248
			],
			"type":"VEC3"
		},
		{
			"bufferView":7,
			"componentType":5126,
			"count":435,
			"type":"VEC3"
		},
		{
			"bufferView":8,
			"componentType":5126,
			"count":435,
			"type":"VEC2"
		},
		{
			"bufferView":9,
			"componentType":5123,
			"count":1494,
			"type":"SCALAR"
		},
		{
			"bufferView":10,
			"componentType":5126,
			"count":282,
			"max":[
				3.007283567058039e-06,
				3.854353427886963,
				3.854344367980957
			],
			"min":[
				-15.275333404541016,
				-3.8543522357940674,
				-3.8543615341186523
			],
			"type":"VEC3"
		},
		{
			"bufferView":11,
			"componentType":5126,
			"count":282,
			"type":"VEC3"
		},
		{
			"bufferView":12,
			"componentType":5126,
			"count":282,
			"type":"VEC2"
		},
		{
			"bufferView":13,
			"componentType":5123,
			"count":900,
			"type":"SCALAR"
		}
	],
	"bufferViews":[
		{
			"buffer":0,
			"byteLength":9504,
			"byteOffset":0,
			"target":34962
		},
		{
			"buffer":0,
			"byteLength":9504,
			"byteOffset":9504,
			"target":34962
		},
		{
			"buffer":0,
			"byteLength":6336,
			"byteOffset":19008,
			"target":34962
		},
		{
			"buffer":0,
			"byteLength":6336,
			"byteOffset":25344,
			"target":34962
		},
		{
			"buffer":0,
			"byteLength":6336,
			"byteOffset":31680,
			"target":34962
		},
		{
			"buffer":0,
			"byteLength":3444,
			"byteOffset":38016,
			"target":34963
		},
		{
			"buffer":0,
			"byteLength":5220,
			"byteOffset":41460,
			"target":34962
		},
		{
			"buffer":0,
			"byteLength":5220,
			"byteOffset":46680,
			"target":34962
		},
		{
			"buffer":0,
			"byteLength":3480,
			"byteOffset":51900,
			"target":34962
		},
		{
			"buffer":0,
			"byteLength":2988,
			"byteOffset":55380,
			"target":34963
		},
		{
			"buffer":0,
			"byteLength":3384,
			"byteOffset":58368,
			"target":34962
		},
		{
			"buffer":0,
			"byteLength":3384,
			"byteOffset":61752,
			"target":34962
		},
		{
			"buffer":0,
			"byteLength":2256,
			"byteOffset":65136,
			"target":34962
		},
		{
			"buffer":0,
			"byteLength":1800,
			"byteOffset":67392,
			"target":34963
		}
	],
	"samplers":[
		{
			"magFilter":9729,
			"minFilter":9987
		}
	],
	"buffers":[
		{
			"byteLength":69192,
			"uri":"untitled.bin"
		}
	]
}
