{
  "accessors": [
    {
      "bufferView": 2,
      "componentType": 5126,
      "count": 14033,
      "max": [
        -0.0019660000689327717,
        0.0018759999657049775,
        0.003252000082284212
      ],
      "min": [
        -0.002858000108972192,
        -0.002124000107869506,
        -0.0007479999912902713
      ],
      "type": "VEC3"
    },
    {
      "bufferView": 2,
      "byteOffset": 168396,
      "componentType": 5126,
      "count": 14033,
      "max": [
        1.0,
        0.9984192252159119,
        0.9984530806541443
      ],
      "min": [
        -0.9983453750610352,
        -0.9984167814254761,
        -0.9984166622161865
      ],
      "type": "VEC3"
    },
    {
      "bufferView": 1,
      "componentType": 5126,
      "count": 14033,
      "max": [
        1.0,
        1.0
      ],
      "min": [
        0.0,
        0.0
      ],
      "type": "VEC2"
    },
    {
      "bufferView": 0,
      "componentType": 5125,
      "count": 67809,
      "type": "SCALAR"
    },
    {
      "bufferView": 2,
      "byteOffset": 336792,
      "componentType": 5126,
      "count": 152,
      "max": [
        -0.004333999939262867,
        0.01076200045645237,
        0.003252000082284212
      ],
      "min": [
        -0.004333999939262867,
        -0.01100900024175644,
        -0.0007479999912902713
      ],
      "type": "VEC3"
    },
    {
      "bufferView": 2,
      "byteOffset": 338616,
      "componentType": 5126,
      "count": 152,
      "max": [
        1.0,
        -0.0,
        -0.0
      ],
      "min": [
        1.0,
        -0.0,
        -0.0
      ],
      "type": "VEC3"
    },
    {
      "bufferView": 1,
      "byteOffset": 112264,
      "componentType": 5126,
      "count": 152,
      "max": [
        0.0,
        0.0
      ],
      "min": [
        0.0,
        0.0
      ],
      "type": "VEC2"
    },
    {
      "bufferView": 0,
      "byteOffset": 271236,
      "componentType": 5125,
      "count": 444,
      "type": "SCALAR"
    },
    {
      "bufferView": 2,
      "byteOffset": 340440,
      "componentType": 5126,
      "count": 7154,
      "max": [
        0.004486999940127134,
        0.0003349999897181988,
        0.02195899933576584
      ],
      "min": [
        -0.004548000171780586,
        -0.000582000007852912,
        -0.0190420001745224
      ],
      "type": "VEC3"
    },
    {
      "bufferView": 2,
      "byteOffset": 426288,
      "componentType": 5126,
      "count": 7154,
      "max": [
        0.9541627168655396,
        1.0,
        0.9998934268951416
      ],
      "min": [
        -0.9497182369232178,
        -1.0,
        -0.9998934268951416
      ],
      "type": "VEC3"
    },
    {
      "bufferView": 1,
      "byteOffset": 113480,
      "componentType": 5126,
      "count": 7154,
      "max": [
        1.0,
        1.0
      ],
      "min": [
        0.0,
        0.0
      ],
      "type": "VEC2"
    },
    {
      "bufferView": 0,
      "byteOffset": 273012,
      "componentType": 5125,
      "count": 41472,
      "type": "SCALAR"
    },
    {
      "bufferView": 2,
      "byteOffset": 512136,
      "componentType": 5126,
      "count": 4732,
      "max": [
        0.0057230000384151936,
        0.039875999093055725,
        0.04125199839472771
      ],
      "min": [
        -0.004333999939262867,
        -0.04012399911880493,
        -0.03874799981713295
      ],
      "type": "VEC3"
    },
    {
      "bufferView": 2,
      "byteOffset": 568920,
      "componentType": 5126,
      "count": 4732,
      "max": [
        1.0,
        1.0,
        1.0
      ],
      "min": [
        -1.0,
        -1.0,
        -1.0
      ],
      "type": "VEC3"
    },
    {
      "bufferView": 1,
      "byteOffset": 170712,
      "componentType": 5126,
      "count": 4732,
      "max": [
        1.0,
        1.0
      ],
      "min": [
        0.0,
        0.0
      ],
      "type": "VEC2"
    },
    {
      "bufferView": 0,
      "byteOffset": 438900,
      "componentType": 5125,
      "count": 8184,
      "type": "SCALAR"
    }
  ],
  "asset": {
    "extras": {
      "author": "Emilmck (https://sketchfab.com/Emilmck)",
      "license": "CC-BY-4.0 (http://creativecommons.org/licenses/by/4.0/)",
      "source": "https://sketchfab.com/3d-models/europe-wall-socket-7232d542bfca4f0ea17b4285da6ef7ab",
      "title": "Europe Wall Socket"
    },
    "generator": "Sketchfab-14.22.0",
    "version": "2.0"
  },
  "bufferViews": [
    {
      "buffer": 0,
      "byteLength": 471636,
      "name": "floatBufferViews",
      "target": 34963
    },
    {
      "buffer": 0,
      "byteLength": 208568,
      "byteOffset": 471636,
      "byteStride": 8,
      "name": "floatBufferViews",
      "target": 34962
    },
    {
      "buffer": 0,
      "byteLength": 625704,
      "byteOffset": 680204,
      "byteStride": 12,
      "name": "floatBufferViews",
      "target": 34962
    }
  ],
  "buffers": [
    {
      "byteLength": 1305908,
      "uri": "scene.bin"
    }
  ],
  "materials": [
    {
      "doubleSided": true,
      "name": "Material.003",
      "pbrMetallicRoughness": {
        "metallicFactor": 0.3641904761904762,
        "roughnessFactor": 0.28495238095238096
      }
    },
    {
      "doubleSided": true,
      "name": "Material.004",
      "pbrMetallicRoughness": {
        "baseColorFactor": [
          0.1902856685580007,
          0.1902856685580007,
          0.1902856685580007,
          1.0
        ],
        "metallicFactor": 0.608,
        "roughnessFactor": 0.33104761904761904
      }
    },
    {
      "doubleSided": true,
      "name": "Material.005",
      "pbrMetallicRoughness": {
        "baseColorFactor": [
          0.6751395395437068,
          0.6751395395437068,
          0.6751395395437068,
          1.0
        ],
        "metallicFactor": 0.608,
        "roughnessFactor": 0.26666666666666666
      }
    },
    {
      "doubleSided": true,
      "name": "Material.007",
      "pbrMetallicRoughness": {
        "baseColorFactor": [
          0.0,
          0.0,
          0.0,
          1.0
        ],
        "metallicFactor": 0.0,
        "roughnessFactor": 0.0
      }
    }
  ],
  "meshes": [
    {
      "name": "Object_0",
      "primitives": [
        {
          "attributes": {
            "NORMAL": 1,
            "POSITION": 0,
            "TEXCOORD_0": 2
          },
          "indices": 3,
          "material": 2,
          "mode": 4
        }
      ]
    },
    {
      "name": "Object_1",
      "primitives": [
        {
          "attributes": {
            "NORMAL": 5,
            "POSITION": 4,
            "TEXCOORD_0": 6
          },
          "indices": 7,
          "material": 3,
          "mode": 4
        }
      ]
    },
    {
      "name": "Object_2",
      "primitives": [
        {
          "attributes": {
            "NORMAL": 9,
            "POSITION": 8,
            "TEXCOORD_0": 10
          },
          "indices": 11,
          "material": 1,
          "mode": 4
        }
      ]
    },
    {
      "name": "Object_3",
      "primitives": [
        {
          "attributes": {
            "NORMAL": 13,
            "POSITION": 12,
            "TEXCOORD_0": 14
          },
          "indices": 15,
          "material": 0,
          "mode": 4
        }
      ]
    }
  ],
  "nodes": [
    {
      "children": [
        1
      ],
      "matrix": [
        12.780221939086914,
        0.0,
        0.0,
        0.0,
        0.0,
        2.8377793313187714e-15,
        -12.780221939086914,
        0.0,
        0.0,
        12.780221939086914,
        2.8377793313187714e-15,
        0.0,
        0.0,
        0.0,
        0.0,
        1.0
      ],
      "name": "Sketchfab_model"
    },
    {
      "children": [
        2,
        3,
        4,
        5
      ],
      "name": "Steckdose1.obj.cleaner.materialmerger.gles"
    },
    {
      "mesh": 0,
      "name": "Object_2"
    },
    {
      "mesh": 1,
      "name": "Object_3"
    },
    {
      "mesh": 2,
      "name": "Object_4"
    },
    {
      "mesh": 3,
      "name": "Object_5"
    }
  ],
  "scene": 0,
  "scenes": [
    {
      "name": "Sketchfab_Scene",
      "nodes": [
        0
      ]
    }
  ]
}
