{
	"asset":{
		"generator":"Khronos glTF Blender I/O v4.3.47",
		"version":"2.0"
	},
	"extensionsUsed":[
		"KHR_materials_emissive_strength",
		"KHR_texture_transform"
	],
	"extensionsRequired":[
		"KHR_texture_transform"
	],
	"scene":0,
	"scenes":[
		{
			"name":"Scene",
			"nodes":[
				2
			]
		}
	],
	"nodes":[
		{
			"mesh":0,
			"name":"Object_6"
		},
		{
			"mesh":1,
			"name":"Object_7"
		},
		{
			"children":[
				0,
				1
			],
			"name":"Monitor_002.007_1",
			"rotation":[
				0.70710688829422,
				0,
				0,
				0.7071066498756409
			],
			"scale":[
				0.009999998845160007,
				0.010000000707805157,
				0.010000000707805157
			],
			"translation":[
				0.00039753690361976624,
				0.002142995595932007,
				-8.118152618408203e-05
			]
		}
	],
	"materials":[
		{
			"doubleSided":true,
			"name":"Monitor_Cream",
			"normalTexture":{
				"extensions":{
					"KHR_texture_transform":{
						"offset":[
							8.742278012618943e-08,
							-3.774758283725532e-15
						],
						"rotation":3.1415927410125732,
						"scale":[
							-1,
							1
						]
					}
				},
				"index":0
			},
			"pbrMetallicRoughness":{
				"baseColorTexture":{
					"extensions":{
						"KHR_texture_transform":{
							"offset":[
								8.742278012618943e-08,
								-3.774758283725532e-15
							],
							"rotation":3.1415927410125732,
							"scale":[
								-1,
								1
							]
						}
					},
					"index":1
				},
				"metallicRoughnessTexture":{
					"index":2
				}
			}
		},
		{
			"doubleSided":true,
			"emissiveFactor":[
				1,
				1,
				1
			],
			"emissiveTexture":{
				"extensions":{
					"KHR_texture_transform":{
						"offset":[
							0.23467254638671475,
							0.02032715479006011
						],
						"rotation":1.5707963705062866,
						"scale":[
							5,
							-4
						]
					}
				},
				"index":3
			},
			"extensions":{
				"KHR_materials_emissive_strength":{
					"emissiveStrength":6.035106658935547
				}
			},
			"name":"Monitor_Glass",
			"normalTexture":{
				"index":4
			},
			"pbrMetallicRoughness":{
				"baseColorTexture":{
					"index":5
				},
				"metallicFactor":0,
				"metallicRoughnessTexture":{
					"index":6
				}
			}
		}
	],
	"meshes":[
		{
			"name":"Object_1",
			"primitives":[
				{
					"attributes":{
						"POSITION":0,
						"NORMAL":1,
						"TEXCOORD_0":2,
						"TEXCOORD_1":3,
						"TEXCOORD_2":4,
						"TEXCOORD_3":5,
						"TEXCOORD_4":6
					},
					"indices":7,
					"material":0
				}
			]
		},
		{
			"name":"Object_2",
			"primitives":[
				{
					"attributes":{
						"POSITION":8,
						"NORMAL":9,
						"TEXCOORD_0":10,
						"TEXCOORD_1":11,
						"TEXCOORD_2":12,
						"TEXCOORD_3":13,
						"TEXCOORD_4":14
					},
					"indices":15,
					"material":1
				}
			]
		}
	],
	"textures":[
		{
			"sampler":0,
			"source":0
		},
		{
			"sampler":0,
			"source":1
		},
		{
			"sampler":0,
			"source":2
		},
		{
			"sampler":1,
			"source":3
		},
		{
			"sampler":0,
			"source":4
		},
		{
			"sampler":0,
			"source":5
		},
		{
			"sampler":0,
			"source":6
		}
	],
	"images":[
		{
			"mimeType":"image/png",
			"name":"Monitor_Cream_normal",
			"uri":"Monitor_Cream_normal.png"
		},
		{
			"mimeType":"image/jpeg",
			"name":"Monitor_Cream_baseColor",
			"uri":"Monitor_Cream_baseColor.jpg"
		},
		{
			"mimeType":"image/png",
			"name":"Monitor_Cream_metallicRoughness",
			"uri":"Monitor_Cream_metallicRoughness.png"
		},
		{
			"mimeType":"image/jpeg",
			"name":"Monitor_Glass_emissive",
			"uri":"Monitor_Glass_emissive.jpg"
		},
		{
			"mimeType":"image/png",
			"name":"Monitor_Glass_normal",
			"uri":"Monitor_Glass_normal.png"
		},
		{
			"mimeType":"image/jpeg",
			"name":"Monitor_Glass_baseColor",
			"uri":"Monitor_Glass_baseColor.jpg"
		},
		{
			"mimeType":"image/png",
			"name":"Monitor_Glass_metallicRoughness",
			"uri":"Monitor_Glass_metallicRoughness.png"
		}
	],
	"accessors":[
		{
			"bufferView":0,
			"componentType":5126,
			"count":247,
			"max":[
				15.347260475158691,
				20.6478328704834,
				14.119220733642578
			],
			"min":[
				-19.613895416259766,
				-20.62010383605957,
				-28.22817039489746
			],
			"type":"VEC3"
		},
		{
			"bufferView":1,
			"componentType":5126,
			"count":247,
			"type":"VEC3"
		},
		{
			"bufferView":2,
			"componentType":5126,
			"count":247,
			"type":"VEC2"
		},
		{
			"bufferView":3,
			"componentType":5126,
			"count":247,
			"type":"VEC2"
		},
		{
			"bufferView":4,
			"componentType":5126,
			"count":247,
			"type":"VEC2"
		},
		{
			"bufferView":5,
			"componentType":5126,
			"count":247,
			"type":"VEC2"
		},
		{
			"bufferView":6,
			"componentType":5126,
			"count":247,
			"type":"VEC2"
		},
		{
			"bufferView":7,
			"componentType":5123,
			"count":552,
			"type":"SCALAR"
		},
		{
			"bufferView":8,
			"componentType":5126,
			"count":25,
			"max":[
				13.567482948303223,
				14.697418212890625,
				1.030020833015442
			],
			"min":[
				11.042834281921387,
				-14.66968822479248,
				-23.298646926879883
			],
			"type":"VEC3"
		},
		{
			"bufferView":9,
			"componentType":5126,
			"count":25,
			"type":"VEC3"
		},
		{
			"bufferView":10,
			"componentType":5126,
			"count":25,
			"type":"VEC2"
		},
		{
			"bufferView":11,
			"componentType":5126,
			"count":25,
			"type":"VEC2"
		},
		{
			"bufferView":12,
			"componentType":5126,
			"count":25,
			"type":"VEC2"
		},
		{
			"bufferView":13,
			"componentType":5126,
			"count":25,
			"type":"VEC2"
		},
		{
			"bufferView":14,
			"componentType":5126,
			"count":25,
			"type":"VEC2"
		},
		{
			"bufferView":15,
			"componentType":5123,
			"count":120,
			"type":"SCALAR"
		}
	],
	"bufferViews":[
		{
			"buffer":0,
			"byteLength":2964,
			"byteOffset":0,
			"target":34962
		},
		{
			"buffer":0,
			"byteLength":2964,
			"byteOffset":2964,
			"target":34962
		},
		{
			"buffer":0,
			"byteLength":1976,
			"byteOffset":5928,
			"target":34962
		},
		{
			"buffer":0,
			"byteLength":1976,
			"byteOffset":7904,
			"target":34962
		},
		{
			"buffer":0,
			"byteLength":1976,
			"byteOffset":9880,
			"target":34962
		},
		{
			"buffer":0,
			"byteLength":1976,
			"byteOffset":11856,
			"target":34962
		},
		{
			"buffer":0,
			"byteLength":1976,
			"byteOffset":13832,
			"target":34962
		},
		{
			"buffer":0,
			"byteLength":1104,
			"byteOffset":15808,
			"target":34963
		},
		{
			"buffer":0,
			"byteLength":300,
			"byteOffset":16912,
			"target":34962
		},
		{
			"buffer":0,
			"byteLength":300,
			"byteOffset":17212,
			"target":34962
		},
		{
			"buffer":0,
			"byteLength":200,
			"byteOffset":17512,
			"target":34962
		},
		{
			"buffer":0,
			"byteLength":200,
			"byteOffset":17712,
			"target":34962
		},
		{
			"buffer":0,
			"byteLength":200,
			"byteOffset":17912,
			"target":34962
		},
		{
			"buffer":0,
			"byteLength":200,
			"byteOffset":18112,
			"target":34962
		},
		{
			"buffer":0,
			"byteLength":200,
			"byteOffset":18312,
			"target":34962
		},
		{
			"buffer":0,
			"byteLength":240,
			"byteOffset":18512,
			"target":34963
		}
	],
	"samplers":[
		{
			"magFilter":9729,
			"minFilter":9987
		},
		{
			"magFilter":9729,
			"minFilter":9987,
			"wrapS":33648,
			"wrapT":33648
		}
	],
	"buffers":[
		{
			"byteLength":18752,
			"uri":"monitor_single.bin"
		}
	]
}
