{
  "accessors": [
    {
      "bufferView": 2,
      "componentType": 5126,
      "count": 7974,
      "max": [
        249.76092529296875,
        230.4835205078125,
        225.40896606445313
      ],
      "min": [
        -249.76089477539063,
        -230.4835205078125,
        -9.760009765625
      ],
      "type": "VEC3"
    },
    {
      "bufferView": 2,
      "byteOffset": 95688,
      "componentType": 5126,
      "count": 7974,
      "max": [
        0.9999773502349854,
        0.9999998807907104,
        1.0
      ],
      "min": [
        -0.9999992251396179,
        -0.9999998807907104,
        -1.0
      ],
      "type": "VEC3"
    },
    {
      "bufferView": 3,
      "componentType": 5126,
      "count": 7974,
      "max": [
        0.9999718070030212,
        0.9999999403953552,
        0.9999983906745911,
        1.0
      ],
      "min": [
        -0.9999991655349731,
        -0.9999996423721313,
        -0.9996030330657959,
        1.0
      ],
      "type": "VEC4"
    },
    {
      "bufferView": 1,
      "componentType": 5126,
      "count": 7974,
      "max": [
        0.9921879768371582,
        0.9940680265426636
      ],
      "min": [
        0.007813000120222569,
        0.007813000120222569
      ],
      "type": "VEC2"
    },
    {
      "bufferView": 0,
      "componentType": 5125,
      "count": 27561,
      "type": "SCALAR"
    }
  ],
  "asset": {
    "extras": {
      "author": "Jefferson Frenay (https://sketchfab.com/MrTeckmachin)",
      "license": "CC-BY-NC-ND-4.0 (http://creativecommons.org/licenses/by-nc-nd/4.0/)",
      "source": "https://sketchfab.com/3d-models/o2-generator-c825c67a6db545568b4b1124f49a5ee2",
      "title": "O² Generator"
    },
    "generator": "Sketchfab-12.66.0",
    "version": "2.0"
  },
  "bufferViews": [
    {
      "buffer": 0,
      "byteLength": 110244,
      "name": "floatBufferViews",
      "target": 34963
    },
    {
      "buffer": 0,
      "byteLength": 63792,
      "byteOffset": 110244,
      "byteStride": 8,
      "name": "floatBufferViews",
      "target": 34962
    },
    {
      "buffer": 0,
      "byteLength": 191376,
      "byteOffset": 174036,
      "byteStride": 12,
      "name": "floatBufferViews",
      "target": 34962
    },
    {
      "buffer": 0,
      "byteLength": 127584,
      "byteOffset": 365412,
      "byteStride": 16,
      "name": "floatBufferViews",
      "target": 34962
    }
  ],
  "buffers": [
    {
      "byteLength": 492996,
      "uri": "scene.bin"
    }
  ],
  "images": [
    {
      "uri": "textures/material_0_baseColor.png"
    },
    {
      "uri": "textures/material_0_metallicRoughness.png"
    },
    {
      "uri": "textures/material_0_emissive.png"
    },
    {
      "uri": "textures/material_0_normal.png"
    }
  ],
  "materials": [
    {
      "emissiveFactor": [
        1.0,
        1.0,
        1.0
      ],
      "emissiveTexture": {
        "index": 2
      },
      "name": "material_0",
      "normalTexture": {
        "index": 3
      },
      "occlusionTexture": {
        "index": 1
      },
      "pbrMetallicRoughness": {
        "baseColorTexture": {
          "index": 0
        },
        "metallicRoughnessTexture": {
          "index": 1
        }
      }
    }
  ],
  "meshes": [
    {
      "name": "Object_0",
      "primitives": [
        {
          "attributes": {
            "NORMAL": 1,
            "POSITION": 0,
            "TANGENT": 2,
            "TEXCOORD_0": 3
          },
          "indices": 4,
          "material": 0,
          "mode": 4
        }
      ]
    }
  ],
  "nodes": [
    {
      "children": [
        1
      ],
      "matrix": [
        0.014285714365541935,
        0.0,
        0.0,
        0.0,
        0.0,
        3.1720658023686032e-18,
        -0.014285714365541935,
        0.0,
        0.0,
        0.014285714365541935,
        3.1720658023686032e-18,
        0.0,
        0.0,
        0.0,
        0.0,
        1.0
      ],
      "name": "Sketchfab_model"
    },
    {
      "children": [
        2
      ],
      "name": "M_Generator_1.obj.cleaner.materialmerger.gles"
    },
    {
      "mesh": 0,
      "name": "Object_2"
    }
  ],
  "samplers": [
    {
      "magFilter": 9729,
      "minFilter": 9987,
      "wrapS": 10497,
      "wrapT": 10497
    }
  ],
  "scene": 0,
  "scenes": [
    {
      "name": "Sketchfab_Scene",
      "nodes": [
        0
      ]
    }
  ],
  "textures": [
    {
      "sampler": 0,
      "source": 0
    },
    {
      "sampler": 0,
      "source": 1
    },
    {
      "sampler": 0,
      "source": 2
    },
    {
      "sampler": 0,
      "source": 3
    }
  ]
}
