{
	"asset":{
		"generator":"Khronos glTF Blender I/O v4.3.47",
		"version":"2.0"
	},
	"extensionsUsed":[
		"KHR_materials_specular"
	],
	"scene":0,
	"scenes":[
		{
			"name":"Scene",
			"nodes":[
				0
			]
		}
	],
	"nodes":[
		{
			"mesh":0,
			"name":"Object_4",
			"rotation":[
				0.7071068286895752,
				0,
				0,
				0.7071068286895752
			],
			"translation":[
				0.002861112356185913,
				-0.00029141828417778015,
				-0.0042729973793029785
			]
		}
	],
	"materials":[
		{
			"doubleSided":true,
			"extensions":{
				"KHR_materials_specular":{
					"specularTexture":{
						"index":0,
						"texCoord":1
					}
				}
			},
			"name":"Ucupaint_Keyboard_Creme",
			"normalTexture":{
				"index":1
			},
			"pbrMetallicRoughness":{
				"baseColorFactor":[
					0.6159863471984863,
					0.6159863471984863,
					0.6159863471984863,
					1
				],
				"baseColorTexture":{
					"index":2
				},
				"metallicFactor":0,
				"metallicRoughnessTexture":{
					"index":3
				}
			}
		}
	],
	"meshes":[
		{
			"name":"Object_0",
			"primitives":[
				{
					"attributes":{
						"POSITION":0,
						"NORMAL":1,
						"TEXCOORD_0":2,
						"TEXCOORD_1":3,
						"TEXCOORD_2":4,
						"TEXCOORD_3":5,
						"TEXCOORD_4":6,
						"TEXCOORD_5":7,
						"TEXCOORD_6":8
					},
					"indices":9,
					"material":0
				}
			]
		}
	],
	"textures":[
		{
			"sampler":0,
			"source":0
		},
		{
			"sampler":0,
			"source":1
		},
		{
			"sampler":0,
			"source":2
		},
		{
			"sampler":0,
			"source":3
		}
	],
	"images":[
		{
			"mimeType":"image/png",
			"name":"Ucupaint_Keyboard_Creme_specularf0",
			"uri":"Ucupaint_Keyboard_Creme_specularf0.png"
		},
		{
			"mimeType":"image/jpeg",
			"name":"Ucupaint_Keyboard_Creme_normal",
			"uri":"Ucupaint_Keyboard_Creme_normal.jpg"
		},
		{
			"mimeType":"image/jpeg",
			"name":"Ucupaint_Keyboard_Creme_baseColor",
			"uri":"Ucupaint_Keyboard_Creme_baseColor.jpg"
		},
		{
			"mimeType":"image/png",
			"name":"Ucupaint_Keyboard_Creme_metallicRoughness",
			"uri":"Ucupaint_Keyboard_Creme_metallicRoughness.png"
		}
	],
	"accessors":[
		{
			"bufferView":0,
			"componentType":5126,
			"count":2168,
			"max":[
				0.09039516746997833,
				0.21277116239070892,
				0.023873457685112953
			],
			"min":[
				-0.07846896350383759,
				-0.21309782564640045,
				-0.01452901866286993
			],
			"type":"VEC3"
		},
		{
			"bufferView":1,
			"componentType":5126,
			"count":2168,
			"type":"VEC3"
		},
		{
			"bufferView":2,
			"componentType":5126,
			"count":2168,
			"type":"VEC2"
		},
		{
			"bufferView":3,
			"componentType":5126,
			"count":2168,
			"type":"VEC2"
		},
		{
			"bufferView":4,
			"componentType":5126,
			"count":2168,
			"type":"VEC2"
		},
		{
			"bufferView":5,
			"componentType":5126,
			"count":2168,
			"type":"VEC2"
		},
		{
			"bufferView":6,
			"componentType":5126,
			"count":2168,
			"type":"VEC2"
		},
		{
			"bufferView":7,
			"componentType":5126,
			"count":2168,
			"type":"VEC2"
		},
		{
			"bufferView":8,
			"componentType":5126,
			"count":2168,
			"type":"VEC2"
		},
		{
			"bufferView":9,
			"componentType":5123,
			"count":3264,
			"type":"SCALAR"
		}
	],
	"bufferViews":[
		{
			"buffer":0,
			"byteLength":26016,
			"byteOffset":0,
			"target":34962
		},
		{
			"buffer":0,
			"byteLength":26016,
			"byteOffset":26016,
			"target":34962
		},
		{
			"buffer":0,
			"byteLength":17344,
			"byteOffset":52032,
			"target":34962
		},
		{
			"buffer":0,
			"byteLength":17344,
			"byteOffset":69376,
			"target":34962
		},
		{
			"buffer":0,
			"byteLength":17344,
			"byteOffset":86720,
			"target":34962
		},
		{
			"buffer":0,
			"byteLength":17344,
			"byteOffset":104064,
			"target":34962
		},
		{
			"buffer":0,
			"byteLength":17344,
			"byteOffset":121408,
			"target":34962
		},
		{
			"buffer":0,
			"byteLength":17344,
			"byteOffset":138752,
			"target":34962
		},
		{
			"buffer":0,
			"byteLength":17344,
			"byteOffset":156096,
			"target":34962
		},
		{
			"buffer":0,
			"byteLength":6528,
			"byteOffset":173440,
			"target":34963
		}
	],
	"samplers":[
		{
			"magFilter":9729,
			"minFilter":9987
		}
	],
	"buffers":[
		{
			"byteLength":179968,
			"uri":"keyboard_single.bin"
		}
	]
}
