{
  "accessors": [
    {
      "bufferView": 2,
      "componentType": 5126,
      "count": 1404,
      "max": [
        2.7207069396972656,
        2.3347384929656982,
        6.481065273284912
      ],
      "min": [
        -2.7207069396972656,
        -2.4488539695739746,
        -0.7109308242797852
      ],
      "type": "VEC3"
    },
    {
      "bufferView": 2,
      "byteOffset": 16848,
      "componentType": 5126,
      "count": 1404,
      "max": [
        1.0,
        1.0,
        1.0
      ],
      "min": [
        -1.0,
        -1.0,
        -1.0
      ],
      "type": "VEC3"
    },
    {
      "bufferView": 3,
      "componentType": 5126,
      "count": 1404,
      "max": [
        1.0,
        1.0,
        1.0,
        1.0
      ],
      "min": [
        -1.0,
        -1.0,
        -1.0,
        1.0
      ],
      "type": "VEC4"
    },
    {
      "bufferView": 1,
      "componentType": 5126,
      "count": 1404,
      "max": [
        1.0,
        0.9854531288146973
      ],
      "min": [
        -1.2614311373226883e-08,
        -1.1097916363667082e-08
      ],
      "type": "VEC2"
    },
    {
      "bufferView": 0,
      "componentType": 5125,
      "count": 3396,
      "type": "SCALAR"
    },
    {
      "bufferView": 2,
      "byteOffset": 33696,
      "componentType": 5126,
      "count": 108,
      "max": [
        2.417024612426758,
        2.2280256748199463,
        6.12590217590332
      ],
      "min": [
        -2.417024612426758,
        2.0057027339935303,
        3.0303242206573486
      ],
      "type": "VEC3"
    },
    {
      "bufferView": 2,
      "byteOffset": 34992,
      "componentType": 5126,
      "count": 108,
      "max": [
        0.05830664187669754,
        1.0,
        0.34398338198661804
      ],
      "min": [
        -0.05830663815140724,
        0.9389733672142029,
        -0.3400561809539795
      ],
      "type": "VEC3"
    },
    {
      "bufferView": 3,
      "byteOffset": 22464,
      "componentType": 5126,
      "count": 108,
      "max": [
        0.01335232425481081,
        0.3400551378726959,
        1.0,
        1.0
      ],
      "min": [
        -0.015011532232165337,
        -0.34398239850997925,
        0.9389758110046387,
        1.0
      ],
      "type": "VEC4"
    },
    {
      "bufferView": 1,
      "byteOffset": 11232,
      "componentType": 5126,
      "count": 108,
      "max": [
        0.23174181580543518,
        0.8187629580497742
      ],
      "min": [
        0.06832326203584671,
        0.5635768175125122
      ],
      "type": "VEC2"
    },
    {
      "bufferView": 0,
      "byteOffset": 13584,
      "componentType": 5125,
      "count": 462,
      "type": "SCALAR"
    }
  ],
  "asset": {
    "extras": {
      "author": "Shadow (https://sketchfab.com/Shad8xr)",
      "license": "SKETCHFAB Standard (https://sketchfab.com/licenses)",
      "source": "https://sketchfab.com/3d-models/old-retro-stylized-computer-b11f435540b745429c0412ddcf19a656",
      "title": "Old Retro Stylized Computer"
    },
    "generator": "Sketchfab-16.16.0",
    "version": "2.0"
  },
  "bufferViews": [
    {
      "buffer": 0,
      "byteLength": 15432,
      "name": "floatBufferViews",
      "target": 34963
    },
    {
      "buffer": 0,
      "byteLength": 12096,
      "byteOffset": 15432,
      "byteStride": 8,
      "name": "floatBufferViews",
      "target": 34962
    },
    {
      "buffer": 0,
      "byteLength": 36288,
      "byteOffset": 27528,
      "byteStride": 12,
      "name": "floatBufferViews",
      "target": 34962
    },
    {
      "buffer": 0,
      "byteLength": 24192,
      "byteOffset": 63816,
      "byteStride": 16,
      "name": "floatBufferViews",
      "target": 34962
    }
  ],
  "buffers": [
    {
      "byteLength": 88008,
      "uri": "scene.bin"
    }
  ],
  "images": [
    {
      "uri": "textures/Scene_-_Root_baseColor.png"
    },
    {
      "uri": "textures/Scene_-_Root_metallicRoughness.png"
    },
    {
      "uri": "textures/Scene_-_Root_normal.png"
    }
  ],
  "materials": [
    {
      "doubleSided": true,
      "name": "Scene_-_Root",
      "normalTexture": {
        "index": 2
      },
      "pbrMetallicRoughness": {
        "baseColorTexture": {
          "index": 0
        },
        "metallicRoughnessTexture": {
          "index": 1
        }
      }
    }
  ],
  "meshes": [
    {
      "name": "Cube__0",
      "primitives": [
        {
          "attributes": {
            "NORMAL": 1,
            "POSITION": 0,
            "TANGENT": 2,
            "TEXCOORD_0": 3
          },
          "indices": 4,
          "material": 0,
          "mode": 4
        }
      ]
    },
    {
      "name": "Cube.004__0",
      "primitives": [
        {
          "attributes": {
            "NORMAL": 6,
            "POSITION": 5,
            "TANGENT": 7,
            "TEXCOORD_0": 8
          },
          "indices": 9,
          "material": 0,
          "mode": 4
        }
      ]
    }
  ],
  "nodes": [
    {
      "children": [
        1
      ],
      "matrix": [
        -0.9999871253967285,
        -1.6194007063841765e-16,
        0.005079197231680155,
        0.0,
        0.005079197231680155,
        -2.2204174618883432e-16,
        0.9999871253967285,
        0.0,
        -1.6081018441807418e-16,
        1.0,
        2.228614021461501e-16,
        0.0,
        0.0,
        0.0,
        0.0,
        1.0
      ],
      "name": "Sketchfab_model"
    },
    {
      "children": [
        2
      ],
      "matrix": [
        0.009999999776482582,
        0.0,
        0.0,
        0.0,
        0.0,
        0.0,
        0.009999999776482582,
        0.0,
        0.0,
        -0.009999999776482582,
        0.0,
        0.0,
        0.0,
        0.0,
        0.0,
        1.0
      ],
      "name": "3819eceee8b0483cb8dfe4b062d30b59.fbx"
    },
    {
      "children": [
        3,
        5
      ],
      "name": "RootNode"
    },
    {
      "children": [
        4
      ],
      "matrix": [
        100.0,
        0.0,
        0.0,
        0.0,
        0.0,
        -1.629206793918314e-05,
        -99.99999999999868,
        0.0,
        0.0,
        99.99999999999868,
        -1.629206793918314e-05,
        0.0,
        0.0,
        0.0,
        0.0,
        1.0
      ],
      "name": "Cube"
    },
    {
      "mesh": 0,
      "name": "Cube__0"
    },
    {
      "children": [
        6
      ],
      "matrix": [
        100.0,
        0.0,
        0.0,
        0.0,
        0.0,
        -1.629206793918314e-05,
        -99.99999999999868,
        0.0,
        0.0,
        99.99999999999868,
        -1.629206793918314e-05,
        0.0,
        0.0,
        0.0,
        0.0,
        1.0
      ],
      "name": "Cube.004"
    },
    {
      "mesh": 1,
      "name": "Cube.004__0"
    }
  ],
  "samplers": [
    {
      "magFilter": 9729,
      "minFilter": 9987,
      "wrapS": 10497,
      "wrapT": 10497
    }
  ],
  "scene": 0,
  "scenes": [
    {
      "name": "Sketchfab_Scene",
      "nodes": [
        0
      ]
    }
  ],
  "textures": [
    {
      "sampler": 0,
      "source": 0
    },
    {
      "sampler": 0,
      "source": 1
    },
    {
      "sampler": 0,
      "source": 2
    }
  ]
}
