{
  "accessors": [
    {
      "bufferView": 2,
      "componentType": 5126,
      "count": 182,
      "max": [
        6.43828010559082,
        11.425869941711426,
        6.43828010559082
      ],
      "min": [
        -6.43828010559082,
        -6.787109896322363e-07,
        -6.43828010559082
      ],
      "type": "VEC3"
    },
    {
      "bufferView": 2,
      "byteOffset": 2184,
      "componentType": 5126,
      "count": 182,
      "max": [
        0.9772772789001465,
        1.0,
        0.9772772789001465
      ],
      "min": [
        -0.9772772789001465,
        -1.0,
        -0.9772772789001465
      ],
      "type": "VEC3"
    },
    {
      "bufferView": 1,
      "componentType": 5126,
      "count": 182,
      "max": [
        0.8042709827423096,
        0.993224024772644
      ],
      "min": [
        0.00643457006663084,
        0.5266100168228149
      ],
      "type": "VEC2"
    },
    {
      "bufferView": 0,
      "componentType": 5125,
      "count": 816,
      "type": "SCALAR"
    },
    {
      "bufferView": 2,
      "byteOffset": 4368,
      "componentType": 5126,
      "count": 24,
      "max": [
        7.454060077667236,
        30.216659545898438,
        1.3874300718307495
      ],
      "min": [
        -7.454060077667236,
        15.308540344238281,
        -13.520689964294434
      ],
      "type": "VEC3"
    },
    {
      "bufferView": 2,
      "byteOffset": 4656,
      "componentType": 5126,
      "count": 24,
      "max": [
        1.0,
        1.0,
        1.0
      ],
      "min": [
        -1.0,
        -1.0,
        -1.0
      ],
      "type": "VEC3"
    },
    {
      "bufferView": 1,
      "byteOffset": 1456,
      "componentType": 5126,
      "count": 24,
      "max": [
        0.875,
        1.0
      ],
      "min": [
        0.125,
        0.0
      ],
      "type": "VEC2"
    },
    {
      "bufferView": 0,
      "byteOffset": 3264,
      "componentType": 5125,
      "count": 36,
      "type": "SCALAR"
    },
    {
      "bufferView": 2,
      "byteOffset": 4944,
      "componentType": 5126,
      "count": 8,
      "max": [
        5.084799766540527,
        32.838199615478516,
        0.0
      ],
      "min": [
        -5.084799766540527,
        4.920149803161621,
        0.0
      ],
      "type": "VEC3"
    },
    {
      "bufferView": 2,
      "byteOffset": 5040,
      "componentType": 5126,
      "count": 8,
      "max": [
        0.0,
        0.0,
        1.0
      ],
      "min": [
        0.0,
        0.0,
        -1.0
      ],
      "type": "VEC3"
    },
    {
      "bufferView": 1,
      "byteOffset": 1648,
      "componentType": 5126,
      "count": 8,
      "max": [
        0.9713709950447083,
        0.9914309978485107
      ],
      "min": [
        0.038239698857069016,
        0.00021684299281332642
      ],
      "type": "VEC2"
    },
    {
      "bufferView": 0,
      "byteOffset": 3408,
      "componentType": 5125,
      "count": 12,
      "type": "SCALAR"
    },
    {
      "bufferView": 2,
      "byteOffset": 5136,
      "componentType": 5126,
      "count": 57,
      "max": [
        2.2633700370788574,
        27.35849952697754,
        1.9618200063705444
      ],
      "min": [
        -2.2633700370788574,
        6.7823100090026855,
        -1.9618200063705444
      ],
      "type": "VEC3"
    },
    {
      "bufferView": 2,
      "byteOffset": 5820,
      "componentType": 5126,
      "count": 57,
      "max": [
        1.0,
        0.8231170773506165,
        0.912037193775177
      ],
      "min": [
        -1.0,
        -0.4959811866283417,
        -0.912037193775177
      ],
      "type": "VEC3"
    },
    {
      "bufferView": 1,
      "byteOffset": 1712,
      "componentType": 5126,
      "count": 57,
      "max": [
        0.8034650087356567,
        0.7784439921379089
      ],
      "min": [
        0.529790997505188,
        0.541271984577179
      ],
      "type": "VEC2"
    },
    {
      "bufferView": 0,
      "byteOffset": 3456,
      "componentType": 5125,
      "count": 252,
      "type": "SCALAR"
    },
    {
      "bufferView": 2,
      "byteOffset": 6504,
      "componentType": 5126,
      "count": 229,
      "max": [
        12.4621000289917,
        44.99190139770508,
        12.4621000289917
      ],
      "min": [
        -12.4621000289917,
        6.419859886169434,
        -12.4621000289917
      ],
      "type": "VEC3"
    },
    {
      "bufferView": 2,
      "byteOffset": 9252,
      "componentType": 5126,
      "count": 229,
      "max": [
        0.9986119270324707,
        1.0,
        0.9986119270324707
      ],
      "min": [
        -0.9986119866371155,
        -1.0,
        -0.9986119270324707
      ],
      "type": "VEC3"
    },
    {
      "bufferView": 1,
      "byteOffset": 2168,
      "componentType": 5126,
      "count": 229,
      "max": [
        0.4937030076980591,
        0.5300800204277039
      ],
      "min": [
        0.007440779823809862,
        0.006251359824091196
      ],
      "type": "VEC2"
    },
    {
      "bufferView": 0,
      "byteOffset": 4464,
      "componentType": 5125,
      "count": 1248,
      "type": "SCALAR"
    },
    {
      "bufferView": 2,
      "byteOffset": 12000,
      "componentType": 5126,
      "count": 229,
      "max": [
        12.024299621582031,
        44.55350112915039,
        12.024299621582031
      ],
      "min": [
        -12.024299621582031,
        6.7823100090026855,
        -12.024299621582031
      ],
      "type": "VEC3"
    },
    {
      "bufferView": 2,
      "byteOffset": 14748,
      "componentType": 5126,
      "count": 229,
      "max": [
        0.9986128211021423,
        1.0,
        0.9986127018928528
      ],
      "min": [
        -0.9986128211021423,
        -1.0,
        -0.9986127018928528
      ],
      "type": "VEC3"
    },
    {
      "bufferView": 1,
      "byteOffset": 4000,
      "componentType": 5126,
      "count": 229,
      "max": [
        0.9915149807929993,
        0.5300800204277039
      ],
      "min": [
        0.5035979747772217,
        0.006251309998333454
      ],
      "type": "VEC2"
    },
    {
      "bufferView": 0,
      "byteOffset": 9456,
      "componentType": 5125,
      "count": 1248,
      "type": "SCALAR"
    },
    {
      "bufferView": 2,
      "byteOffset": 17496,
      "componentType": 5126,
      "count": 229,
      "max": [
        12.024299621582031,
        44.55350112915039,
        12.024299621582031
      ],
      "min": [
        -12.024299621582031,
        6.7823100090026855,
        -12.024299621582031
      ],
      "type": "VEC3"
    },
    {
      "bufferView": 2,
      "byteOffset": 20244,
      "componentType": 5126,
      "count": 229,
      "max": [
        0.9986128211021423,
        1.0,
        0.9986127018928528
      ],
      "min": [
        -0.9986128211021423,
        -1.0,
        -0.9986127018928528
      ],
      "type": "VEC3"
    },
    {
      "bufferView": 1,
      "byteOffset": 5832,
      "componentType": 5126,
      "count": 229,
      "max": [
        0.9915149807929993,
        0.5300800204277039
      ],
      "min": [
        0.5035979747772217,
        0.006251309998333454
      ],
      "type": "VEC2"
    },
    {
      "bufferView": 0,
      "byteOffset": 14448,
      "componentType": 5125,
      "count": 1248,
      "type": "SCALAR"
    },
    {
      "bufferView": 2,
      "byteOffset": 22992,
      "componentType": 5126,
      "count": 229,
      "max": [
        12.4621000289917,
        44.99190139770508,
        12.4621000289917
      ],
      "min": [
        -12.4621000289917,
        6.419859886169434,
        -12.4621000289917
      ],
      "type": "VEC3"
    },
    {
      "bufferView": 2,
      "byteOffset": 25740,
      "componentType": 5126,
      "count": 229,
      "max": [
        0.9986119270324707,
        1.0,
        0.9986119270324707
      ],
      "min": [
        -0.9986119866371155,
        -1.0,
        -0.9986119270324707
      ],
      "type": "VEC3"
    },
    {
      "bufferView": 1,
      "byteOffset": 7664,
      "componentType": 5126,
      "count": 229,
      "max": [
        0.4937030076980591,
        0.5300800204277039
      ],
      "min": [
        0.007440779823809862,
        0.006251359824091196
      ],
      "type": "VEC2"
    },
    {
      "bufferView": 0,
      "byteOffset": 19440,
      "componentType": 5125,
      "count": 1248,
      "type": "SCALAR"
    },
    {
      "bufferView": 2,
      "byteOffset": 28488,
      "componentType": 5126,
      "count": 57,
      "max": [
        2.2633700370788574,
        27.35849952697754,
        1.9618200063705444
      ],
      "min": [
        -2.2633700370788574,
        6.7823100090026855,
        -1.9618200063705444
      ],
      "type": "VEC3"
    },
    {
      "bufferView": 2,
      "byteOffset": 29172,
      "componentType": 5126,
      "count": 57,
      "max": [
        1.0,
        0.8231170773506165,
        0.912037193775177
      ],
      "min": [
        -1.0,
        -0.4959811866283417,
        -0.912037193775177
      ],
      "type": "VEC3"
    },
    {
      "bufferView": 1,
      "byteOffset": 9496,
      "componentType": 5126,
      "count": 57,
      "max": [
        0.8034650087356567,
        0.7784439921379089
      ],
      "min": [
        0.529790997505188,
        0.541271984577179
      ],
      "type": "VEC2"
    },
    {
      "bufferView": 0,
      "byteOffset": 24432,
      "componentType": 5125,
      "count": 252,
      "type": "SCALAR"
    },
    {
      "bufferView": 2,
      "byteOffset": 29856,
      "componentType": 5126,
      "count": 8,
      "max": [
        5.084799766540527,
        32.838199615478516,
        0.0
      ],
      "min": [
        -5.084799766540527,
        4.920149803161621,
        0.0
      ],
      "type": "VEC3"
    },
    {
      "bufferView": 2,
      "byteOffset": 29952,
      "componentType": 5126,
      "count": 8,
      "max": [
        0.0,
        0.0,
        1.0
      ],
      "min": [
        0.0,
        0.0,
        -1.0
      ],
      "type": "VEC3"
    },
    {
      "bufferView": 1,
      "byteOffset": 9952,
      "componentType": 5126,
      "count": 8,
      "max": [
        0.9713709950447083,
        0.9914309978485107
      ],
      "min": [
        0.038239698857069016,
        0.00021684299281332642
      ],
      "type": "VEC2"
    },
    {
      "bufferView": 0,
      "byteOffset": 25440,
      "componentType": 5125,
      "count": 12,
      "type": "SCALAR"
    },
    {
      "bufferView": 2,
      "byteOffset": 30048,
      "componentType": 5126,
      "count": 24,
      "max": [
        7.454060077667236,
        30.216659545898438,
        1.3874300718307495
      ],
      "min": [
        -7.454060077667236,
        15.308540344238281,
        -13.520689964294434
      ],
      "type": "VEC3"
    },
    {
      "bufferView": 2,
      "byteOffset": 30336,
      "componentType": 5126,
      "count": 24,
      "max": [
        1.0,
        1.0,
        1.0
      ],
      "min": [
        -1.0,
        -1.0,
        -1.0
      ],
      "type": "VEC3"
    },
    {
      "bufferView": 1,
      "byteOffset": 10016,
      "componentType": 5126,
      "count": 24,
      "max": [
        0.875,
        1.0
      ],
      "min": [
        0.125,
        0.0
      ],
      "type": "VEC2"
    },
    {
      "bufferView": 0,
      "byteOffset": 25488,
      "componentType": 5125,
      "count": 36,
      "type": "SCALAR"
    },
    {
      "bufferView": 2,
      "byteOffset": 30624,
      "componentType": 5126,
      "count": 182,
      "max": [
        6.43828010559082,
        11.425869941711426,
        6.43828010559082
      ],
      "min": [
        -6.43828010559082,
        -6.787109896322363e-07,
        -6.43828010559082
      ],
      "type": "VEC3"
    },
    {
      "bufferView": 2,
      "byteOffset": 32808,
      "componentType": 5126,
      "count": 182,
      "max": [
        0.9772772789001465,
        1.0,
        0.9772772789001465
      ],
      "min": [
        -0.9772772789001465,
        -1.0,
        -0.9772772789001465
      ],
      "type": "VEC3"
    },
    {
      "bufferView": 1,
      "byteOffset": 10208,
      "componentType": 5126,
      "count": 182,
      "max": [
        0.8042709827423096,
        0.993224024772644
      ],
      "min": [
        0.00643457006663084,
        0.5266100168228149
      ],
      "type": "VEC2"
    },
    {
      "bufferView": 0,
      "byteOffset": 25632,
      "componentType": 5125,
      "count": 816,
      "type": "SCALAR"
    }
  ],
  "asset": {
    "extras": {
      "author": "Starlight_lambda64 (https://sketchfab.com/Starlight_lambda64)",
      "license": "SKETCHFAB Standard (https://sketchfab.com/licenses)",
      "source": "https://sketchfab.com/3d-models/paper-mario-sticker-star-lightbulb-e1a0bf6ab2ed4194a9c08f263fa74c32",
      "title": "[Paper Mario: Sticker Star] Lightbulb"
    },
    "generator": "Sketchfab-16.71.0",
    "version": "2.0"
  },
  "bufferViews": [
    {
      "buffer": 0,
      "byteLength": 28896,
      "name": "floatBufferViews",
      "target": 34963
    },
    {
      "buffer": 0,
      "byteLength": 11664,
      "byteOffset": 28896,
      "byteStride": 8,
      "name": "floatBufferViews",
      "target": 34962
    },
    {
      "buffer": 0,
      "byteLength": 34992,
      "byteOffset": 40560,
      "byteStride": 12,
      "name": "floatBufferViews",
      "target": 34962
    }
  ],
  "buffers": [
    {
      "byteLength": 75552,
      "uri": "scene.bin"
    }
  ],
  "images": [
    {
      "uri": "textures/mLamp_Metal_mat_baseColor.png"
    },
    {
      "uri": "textures/mLamp_filament_mat_baseColor.png"
    }
  ],
  "materials": [
    {
      "doubleSided": true,
      "name": "mLamp_Metal_mat",
      "pbrMetallicRoughness": {
        "baseColorTexture": {
          "index": 0
        },
        "metallicFactor": 0.0,
        "roughnessFactor": 0.6
      }
    },
    {
      "alphaMode": "BLEND",
      "doubleSided": true,
      "name": "mLamp_Metal_mat_0",
      "pbrMetallicRoughness": {
        "baseColorFactor": [
          1.0,
          1.0,
          1.0,
          0.0
        ],
        "baseColorTexture": {
          "index": 0
        },
        "metallicFactor": 0.0,
        "roughnessFactor": 0.6
      }
    },
    {
      "doubleSided": true,
      "name": "mLamp_filament_mat",
      "pbrMetallicRoughness": {
        "baseColorTexture": {
          "index": 1
        },
        "metallicFactor": 0.0,
        "roughnessFactor": 0.6
      }
    },
    {
      "doubleSided": true,
      "name": "mLamp_glass_mat",
      "pbrMetallicRoughness": {
        "baseColorTexture": {
          "index": 0
        },
        "metallicFactor": 0.0,
        "roughnessFactor": 0.6
      }
    },
    {
      "doubleSided": true,
      "name": "mLamp_glass_mat_0",
      "pbrMetallicRoughness": {
        "baseColorTexture": {
          "index": 0
        },
        "metallicFactor": 0.0,
        "roughnessFactor": 0.6
      }
    },
    {
      "doubleSided": true,
      "name": "mLamp_glass_in_mat",
      "pbrMetallicRoughness": {
        "baseColorTexture": {
          "index": 0
        },
        "metallicFactor": 0.0,
        "roughnessFactor": 0.6
      }
    }
  ],
  "meshes": [
    {
      "name": "Object_0",
      "primitives": [
        {
          "attributes": {
            "NORMAL": 1,
            "POSITION": 0,
            "TEXCOORD_0": 2
          },
          "indices": 3,
          "material": 0,
          "mode": 4
        }
      ]
    },
    {
      "name": "Object_1",
      "primitives": [
        {
          "attributes": {
            "NORMAL": 5,
            "POSITION": 4,
            "TEXCOORD_0": 6
          },
          "indices": 7,
          "material": 1,
          "mode": 4
        }
      ]
    },
    {
      "name": "Object_2",
      "primitives": [
        {
          "attributes": {
            "NORMAL": 9,
            "POSITION": 8,
            "TEXCOORD_0": 10
          },
          "indices": 11,
          "material": 2,
          "mode": 4
        }
      ]
    },
    {
      "name": "Object_3",
      "primitives": [
        {
          "attributes": {
            "NORMAL": 13,
            "POSITION": 12,
            "TEXCOORD_0": 14
          },
          "indices": 15,
          "material": 3,
          "mode": 4
        }
      ]
    },
    {
      "name": "Object_4",
      "primitives": [
        {
          "attributes": {
            "NORMAL": 17,
            "POSITION": 16,
            "TEXCOORD_0": 18
          },
          "indices": 19,
          "material": 4,
          "mode": 4
        }
      ]
    },
    {
      "name": "Object_5",
      "primitives": [
        {
          "attributes": {
            "NORMAL": 21,
            "POSITION": 20,
            "TEXCOORD_0": 22
          },
          "indices": 23,
          "material": 5,
          "mode": 4
        }
      ]
    },
    {
      "name": "Object_6",
      "primitives": [
        {
          "attributes": {
            "NORMAL": 25,
            "POSITION": 24,
            "TEXCOORD_0": 26
          },
          "indices": 27,
          "material": 5,
          "mode": 4
        }
      ]
    },
    {
      "name": "Object_7",
      "primitives": [
        {
          "attributes": {
            "NORMAL": 29,
            "POSITION": 28,
            "TEXCOORD_0": 30
          },
          "indices": 31,
          "material": 4,
          "mode": 4
        }
      ]
    },
    {
      "name": "Object_8",
      "primitives": [
        {
          "attributes": {
            "NORMAL": 33,
            "POSITION": 32,
            "TEXCOORD_0": 34
          },
          "indices": 35,
          "material": 3,
          "mode": 4
        }
      ]
    },
    {
      "name": "Object_9",
      "primitives": [
        {
          "attributes": {
            "NORMAL": 37,
            "POSITION": 36,
            "TEXCOORD_0": 38
          },
          "indices": 39,
          "material": 2,
          "mode": 4
        }
      ]
    },
    {
      "name": "Object_10",
      "primitives": [
        {
          "attributes": {
            "NORMAL": 41,
            "POSITION": 40,
            "TEXCOORD_0": 42
          },
          "indices": 43,
          "material": 1,
          "mode": 4
        }
      ]
    },
    {
      "name": "Object_11",
      "primitives": [
        {
          "attributes": {
            "NORMAL": 45,
            "POSITION": 44,
            "TEXCOORD_0": 46
          },
          "indices": 47,
          "material": 0,
          "mode": 4
        }
      ]
    }
  ],
  "nodes": [
    {
      "children": [
        1
      ],
      "matrix": [
        1.0,
        0.0,
        0.0,
        0.0,
        0.0,
        2.220446049250313e-16,
        -1.0,
        0.0,
        0.0,
        1.0,
        2.220446049250313e-16,
        0.0,
        0.0,
        0.0,
        0.0,
        1.0
      ],
      "name": "Sketchfab_model"
    },
    {
      "children": [
        2
      ],
      "matrix": [
        1.0,
        0.0,
        0.0,
        0.0,
        0.0,
        -4.371139006309477e-08,
        0.999999999999999,
        0.0,
        0.0,
        -0.999999999999999,
        -4.371139006309477e-08,
        0.0,
        0.0,
        0.0,
        0.0,
        1.0
      ],
      "name": "Collada visual scene group"
    },
    {
      "children": [
        3,
        4,
        5,
        6,
        7,
        8,
        9,
        10,
        11,
        12,
        13,
        14
      ],
      "name": "Object_2"
    },
    {
      "mesh": 0,
      "name": "Object_3"
    },
    {
      "mesh": 1,
      "name": "Object_4"
    },
    {
      "mesh": 2,
      "name": "Object_5"
    },
    {
      "mesh": 3,
      "name": "Object_6"
    },
    {
      "mesh": 4,
      "name": "Object_7"
    },
    {
      "mesh": 5,
      "name": "Object_8"
    },
    {
      "mesh": 6,
      "name": "Object_9"
    },
    {
      "mesh": 7,
      "name": "Object_10"
    },
    {
      "mesh": 8,
      "name": "Object_11"
    },
    {
      "mesh": 9,
      "name": "Object_12"
    },
    {
      "mesh": 10,
      "name": "Object_13"
    },
    {
      "mesh": 11,
      "name": "Object_14"
    }
  ],
  "samplers": [
    {
      "magFilter": 9729,
      "minFilter": 9987,
      "wrapS": 10497,
      "wrapT": 10497
    }
  ],
  "scene": 0,
  "scenes": [
    {
      "name": "Sketchfab_Scene",
      "nodes": [
        0
      ]
    }
  ],
  "textures": [
    {
      "sampler": 0,
      "source": 0
    },
    {
      "sampler": 0,
      "source": 1
    }
  ]
}
