{
	"asset":{
		"generator":"Khronos glTF Blender I/O v4.3.47",
		"version":"2.0"
	},
	"scene":0,
	"scenes":[
		{
			"name":"Scene",
			"nodes":[
				4
			]
		}
	],
	"nodes":[
		{
			"mesh":0,
			"name":"Object_9",
			"translation":[
				0.1458892822265625,
				-0.33392333984375,
				-0.16021162271499634
			]
		},
		{
			"children":[
				0
			],
			"name":"Mouse_001.005_3",
			"rotation":[
				0.7071067690849304,
				0,
				0,
				0.7071068286895752
			],
			"scale":[
				0.01099999900907278,
				0.010999999940395355,
				0.010999999940395355
			],
			"translation":[
				-0.0005321502685546875,
				0.0010661166161298752,
				0.0029866695404052734
			]
		},
		{
			"children":[
				1
			],
			"name":"GLTF_SceneRootNode",
			"rotation":[
				0.70710688829422,
				0,
				0,
				0.7071066498756409
			]
		},
		{
			"children":[
				2
			],
			"name":"root"
		},
		{
			"children":[
				3
			],
			"name":"Sketchfab_model",
			"rotation":[
				-0.70710688829422,
				0,
				0,
				0.7071066498756409
			]
		}
	],
	"materials":[
		{
			"doubleSided":true,
			"name":"Mouse_Cream",
			"normalTexture":{
				"index":0
			},
			"pbrMetallicRoughness":{
				"baseColorFactor":[
					0.5037052631378174,
					0.5037052631378174,
					0.5037052631378174,
					1
				],
				"baseColorTexture":{
					"index":1
				},
				"metallicFactor":0,
				"metallicRoughnessTexture":{
					"index":2
				}
			}
		}
	],
	"meshes":[
		{
			"name":"Object_3",
			"primitives":[
				{
					"attributes":{
						"POSITION":0,
						"NORMAL":1,
						"TEXCOORD_0":2,
						"TEXCOORD_1":3,
						"TEXCOORD_2":4,
						"TEXCOORD_3":5,
						"TEXCOORD_4":6
					},
					"indices":7,
					"material":0
				}
			]
		}
	],
	"textures":[
		{
			"sampler":0,
			"source":0
		},
		{
			"sampler":0,
			"source":1
		},
		{
			"sampler":0,
			"source":2
		}
	],
	"images":[
		{
			"mimeType":"image/jpeg",
			"name":"Mouse_Cream_normal",
			"uri":"Mouse_Cream_normal.jpg"
		},
		{
			"mimeType":"image/jpeg",
			"name":"Mouse_Cream_baseColor",
			"uri":"Mouse_Cream_baseColor.jpg"
		},
		{
			"mimeType":"image/png",
			"name":"Mouse_Cream_metallicRoughness",
			"uri":"Mouse_Cream_metallicRoughness.png"
		}
	],
	"accessors":[
		{
			"bufferView":0,
			"componentType":5126,
			"count":144,
			"max":[
				5.09315299987793,
				2.990039825439453,
				2.010814666748047
			],
			"min":[
				-3.725269317626953,
				-3.001262664794922,
				-1.5175113677978516
			],
			"type":"VEC3"
		},
		{
			"bufferView":1,
			"componentType":5126,
			"count":144,
			"type":"VEC3"
		},
		{
			"bufferView":2,
			"componentType":5126,
			"count":144,
			"type":"VEC2"
		},
		{
			"bufferView":3,
			"componentType":5126,
			"count":144,
			"type":"VEC2"
		},
		{
			"bufferView":4,
			"componentType":5126,
			"count":144,
			"type":"VEC2"
		},
		{
			"bufferView":5,
			"componentType":5126,
			"count":144,
			"type":"VEC2"
		},
		{
			"bufferView":6,
			"componentType":5126,
			"count":144,
			"type":"VEC2"
		},
		{
			"bufferView":7,
			"componentType":5123,
			"count":372,
			"type":"SCALAR"
		}
	],
	"bufferViews":[
		{
			"buffer":0,
			"byteLength":1728,
			"byteOffset":0,
			"target":34962
		},
		{
			"buffer":0,
			"byteLength":1728,
			"byteOffset":1728,
			"target":34962
		},
		{
			"buffer":0,
			"byteLength":1152,
			"byteOffset":3456,
			"target":34962
		},
		{
			"buffer":0,
			"byteLength":1152,
			"byteOffset":4608,
			"target":34962
		},
		{
			"buffer":0,
			"byteLength":1152,
			"byteOffset":5760,
			"target":34962
		},
		{
			"buffer":0,
			"byteLength":1152,
			"byteOffset":6912,
			"target":34962
		},
		{
			"buffer":0,
			"byteLength":1152,
			"byteOffset":8064,
			"target":34962
		},
		{
			"buffer":0,
			"byteLength":744,
			"byteOffset":9216,
			"target":34963
		}
	],
	"samplers":[
		{
			"magFilter":9729,
			"minFilter":9987
		}
	],
	"buffers":[
		{
			"byteLength":9960,
			"uri":"mouse_single.bin"
		}
	]
}
