{
  "accessors": [
    {
      "bufferView": 2,
      "componentType": 5126,
      "count": 24354,
      "max": [
        0.5599867105484009,
        0.2468218207359314,
        0.2591913342475891
      ],
      "min": [
        0.30337440967559814,
        -0.2145310640335083,
        -0.36824044585227966
      ],
      "type": "VEC3"
    },
    {
      "bufferView": 2,
      "byteOffset": 292248,
      "componentType": 5126,
      "count": 24354,
      "max": [
        1.0,
        0.9999535083770752,
        1.0
      ],
      "min": [
        -1.0,
        -0.9999535083770752,
        -1.0
      ],
      "type": "VEC3"
    },
    {
      "bufferView": 1,
      "componentType": 5126,
      "count": 24354,
      "max": [
        1.0971375703811646,
        1.3774627447128296
      ],
      "min": [
        0.05812728404998779,
        0.1677815020084381
      ],
      "type": "VEC2"
    },
    {
      "bufferView": 0,
      "componentType": 5125,
      "count": 107532,
      "type": "SCALAR"
    },
    {
      "bufferView": 2,
      "byteOffset": 584496,
      "componentType": 5126,
      "count": 21068,
      "max": [
        0.5415277481079102,
        0.22669938206672668,
        2.2971973419189453
      ],
      "min": [
        -2.2421252727508545,
        -0.27372419834136963,
        -2.0622310638427734
      ],
      "type": "VEC3"
    },
    {
      "bufferView": 2,
      "byteOffset": 837312,
      "componentType": 5126,
      "count": 21068,
      "max": [
        0.9999767541885376,
        0.9999666213989258,
        0.999995231628418
      ],
      "min": [
        -0.9999896287918091,
        -0.999993085861206,
        -0.997818112373352
      ],
      "type": "VEC3"
    },
    {
      "bufferView": 1,
      "byteOffset": 194832,
      "componentType": 5126,
      "count": 21068,
      "max": [
        0.9472167491912842,
        1.8837538957595825
      ],
      "min": [
        -0.6539915800094604,
        -0.1162460446357727
      ],
      "type": "VEC2"
    },
    {
      "bufferView": 0,
      "byteOffset": 430128,
      "componentType": 5125,
      "count": 87894,
      "type": "SCALAR"
    },
    {
      "bufferView": 2,
      "byteOffset": 1090128,
      "componentType": 5126,
      "count": 32696,
      "max": [
        0.5472502708435059,
        0.2766984701156616,
        0.04858182370662689
      ],
      "min": [
        -0.38588035106658936,
        -0.28774121403694153,
        -0.7119321227073669
      ],
      "type": "VEC3"
    },
    {
      "bufferView": 2,
      "byteOffset": 1482480,
      "componentType": 5126,
      "count": 32696,
      "max": [
        0.9997613430023193,
        0.9999991655349731,
        0.9999110698699951
      ],
      "min": [
        -0.9996113777160645,
        -0.9999288320541382,
        -0.9998514652252197
      ],
      "type": "VEC3"
    },
    {
      "bufferView": 1,
      "byteOffset": 363376,
      "componentType": 5126,
      "count": 32696,
      "max": [
        7.033657550811768,
        7.0313239097595215
      ],
      "min": [
        -6.033657550811768,
        -6.031655788421631
      ],
      "type": "VEC2"
    },
    {
      "bufferView": 0,
      "byteOffset": 781704,
      "componentType": 5125,
      "count": 100317,
      "type": "SCALAR"
    }
  ],
  "asset": {
    "extras": {
      "author": "GameDevMoot (https://sketchfab.com/GameDevMoot)",
      "license": "CC-BY-4.0 (http://creativecommons.org/licenses/by/4.0/)",
      "source": "https://sketchfab.com/3d-models/victorian-curtain-3a7e18700d5c4033a67d1d143b3cf64c",
      "title": "Victorian Curtain"
    },
    "generator": "Sketchfab-15.49.0",
    "version": "2.0"
  },
  "bufferViews": [
    {
      "buffer": 0,
      "byteLength": 1182972,
      "name": "floatBufferViews",
      "target": 34963
    },
    {
      "buffer": 0,
      "byteLength": 624944,
      "byteOffset": 1182972,
      "byteStride": 8,
      "name": "floatBufferViews",
      "target": 34962
    },
    {
      "buffer": 0,
      "byteLength": 1874832,
      "byteOffset": 1807916,
      "byteStride": 12,
      "name": "floatBufferViews",
      "target": 34962
    }
  ],
  "buffers": [
    {
      "byteLength": 3682748,
      "uri": "scene.bin"
    }
  ],
  "extensionsUsed": [
    "KHR_materials_specular"
  ],
  "materials": [
    {
      "doubleSided": true,
      "extensions": {
        "KHR_materials_specular": {
          "specularColorFactor": [
            1.0,
            1.0,
            1.0
          ],
          "specularFactor": 0.18
        }
      },
      "name": "Metal-Steel",
      "pbrMetallicRoughness": {
        "baseColorFactor": [
          0.22696587351009836,
          0.06124605423161761,
          0.0,
          1.0
        ],
        "metallicFactor": 0.85,
        "roughnessFactor": 0.22999999999999998
      }
    },
    {
      "doubleSided": true,
      "extensions": {
        "KHR_materials_specular": {
          "specularColorFactor": [
            1.0,
            1.0,
            1.0
          ],
          "specularFactor": 0.1
        }
      },
      "name": "Cloth",
      "pbrMetallicRoughness": {
        "baseColorFactor": [
          0.1902856685580007,
          0.0034170210358543916,
          0.0034170210358543916,
          1.0
        ],
        "metallicFactor": 0.0,
        "roughnessFactor": 0.6479989272348259
      }
    },
    {
      "doubleSided": true,
      "extensions": {
        "KHR_materials_specular": {
          "specularColorFactor": [
            1.0,
            1.0,
            1.0
          ],
          "specularFactor": 0.1
        }
      },
      "name": "Rope",
      "pbrMetallicRoughness": {
        "baseColorFactor": [
          0.1138788422272192,
          0.03257275217523193,
          0.011127137592384963,
          1.0
        ],
        "metallicFactor": 0.0
      }
    }
  ],
  "meshes": [
    {
      "name": "Curtain.001_Metal-Steel_0",
      "primitives": [
        {
          "attributes": {
            "NORMAL": 1,
            "POSITION": 0,
            "TEXCOORD_0": 2
          },
          "indices": 3,
          "material": 0,
          "mode": 4
        }
      ]
    },
    {
      "name": "Curtain.001_Cloth_0",
      "primitives": [
        {
          "attributes": {
            "NORMAL": 5,
            "POSITION": 4,
            "TEXCOORD_0": 6
          },
          "indices": 7,
          "material": 1,
          "mode": 4
        }
      ]
    },
    {
      "name": "Curtain.001_Rope_0",
      "primitives": [
        {
          "attributes": {
            "NORMAL": 9,
            "POSITION": 8,
            "TEXCOORD_0": 10
          },
          "indices": 11,
          "material": 2,
          "mode": 4
        }
      ]
    }
  ],
  "nodes": [
    {
      "children": [
        1
      ],
      "matrix": [
        1.0,
        0.0,
        0.0,
        0.0,
        0.0,
        2.220446049250313e-16,
        -1.0,
        0.0,
        0.0,
        1.0,
        2.220446049250313e-16,
        0.0,
        0.0,
        0.0,
        0.0,
        1.0
      ],
      "name": "Sketchfab_model"
    },
    {
      "children": [
        2
      ],
      "matrix": [
        0.009999999776482582,
        0.0,
        0.0,
        0.0,
        0.0,
        0.0,
        0.009999999776482582,
        0.0,
        0.0,
        -0.009999999776482582,
        0.0,
        0.0,
        0.0,
        0.0,
        0.0,
        1.0
      ],
      "name": "4ac58bc7aaed462995439afb4bdc4d60.fbx"
    },
    {
      "children": [
        3
      ],
      "name": "RootNode"
    },
    {
      "children": [
        4,
        5,
        6
      ],
      "matrix": [
        100.0,
        0.0,
        0.0,
        0.0,
        0.0,
        -1.629206793918314e-05,
        -99.99999999999868,
        0.0,
        0.0,
        99.99999999999868,
        -1.629206793918314e-05,
        0.0,
        0.0,
        0.0,
        0.0,
        1.0
      ],
      "name": "Curtain.001"
    },
    {
      "mesh": 0,
      "name": "Curtain.001_Metal-Steel_0"
    },
    {
      "mesh": 1,
      "name": "Curtain.001_Cloth_0"
    },
    {
      "mesh": 2,
      "name": "Curtain.001_Rope_0"
    }
  ],
  "scene": 0,
  "scenes": [
    {
      "name": "Sketchfab_Scene",
      "nodes": [
        0
      ]
    }
  ]
}
